<svg xmlns="http://www.w3.org/2000/svg" xmlns:xlink="http://www.w3.org/1999/xlink" viewBox="0 0 357.53 311.81"><defs><style>.cls-1{fill:none;}.cls-2{isolation:isolate;}.cls-16,.cls-17,.cls-19,.cls-3,.cls-34,.cls-35,.cls-36,.cls-38,.cls-39{opacity:0.5;}.cls-3{mix-blend-mode:lighten;fill:url(#Áåçûìÿííûé_ãðàäèåíò_211);}.cls-4,.cls-5,.cls-6,.cls-7,.cls-8{fill:#42e8e0;}.cls-4{opacity:0.5;}.cls-5{opacity:0.75;}.cls-6{opacity:0.88;}.cls-7{opacity:0.97;}.cls-9{fill:#24126a;}.cls-10{fill:url(#Áåçûìÿííûé_ãðàäèåíò_24);}.cls-11{fill:url(#Áåçûìÿííûé_ãðàäèåíò_24-2);}.cls-12{fill:url(#Áåçûìÿííûé_ãðàäèåíò_24-3);}.cls-13{fill:url(#Áåçûìÿííûé_ãðàäèåíò_24-4);}.cls-14{fill:url(#Áåçûìÿííûé_ãðàäèåíò_24-5);}.cls-15{fill:url(#Áåçûìÿííûé_ãðàäèåíò_3);}.cls-16{fill:url(#Áåçûìÿííûé_ãðàäèåíò_254);}.cls-17{fill:url(#Áåçûìÿííûé_ãðàäèåíò_254-2);}.cls-18{fill:#515151;}.cls-20{fill:url(#Áåçûìÿííûé_ãðàäèåíò_254-3);}.cls-21,.cls-41{fill:#2d2d2d;}.cls-22{fill:url(#Áåçûìÿííûé_ãðàäèåíò_254-4);}.cls-23{fill:#160a5b;}.cls-24{fill:#453c9e;}.cls-25{fill:#fcd1c5;}.cls-26{fill:#f0f6ff;}.cls-27{fill:#c4ccd6;}.cls-28{fill:#e2b1a6;}.cls-29{fill:#aa8383;}.cls-30{fill:#936d6d;}.cls-31{fill:#263649;}.cls-32{clip-path:url(#clip-path);}.cls-33{fill:#334659;}.cls-34{fill:url(#Áåçûìÿííûé_ãðàäèåíò_254-5);}.cls-35{fill:url(#Áåçûìÿííûé_ãðàäèåíò_254-6);}.cls-36{fill:url(#Áåçûìÿííûé_ãðàäèåíò_254-7);}.cls-37{fill:#180d5b;opacity:0.3;}.cls-38{fill:url(#Áåçûìÿííûé_ãðàäèåíò_254-8);}.cls-39{fill:url(#Áåçûìÿííûé_ãðàäèåíò_254-9);}.cls-40{fill:#4846a5;}.cls-41{opacity:0.63;}.cls-42{fill:url(#Áåçûìÿííûé_ãðàäèåíò_24-6);}.cls-43{fill:url(#Áåçûìÿííûé_ãðàäèåíò_3-2);}.cls-44{fill:#fff;}.cls-45{fill:#2842a2;}.cls-46{fill:#adb1f2;}.cls-47{fill:#9198db;}.cls-48{fill:url(#Áåçûìÿííûé_ãðàäèåíò_3-3);}.cls-49{fill:url(#Áåçûìÿííûé_ãðàäèåíò_3-4);}.cls-50{fill:url(#Áåçûìÿííûé_ãðàäèåíò_24-7);}</style><radialGradient id="Áåçûìÿííûé_ãðàäèåíò_211" cx="-2140.42" cy="-376.32" r="141.01" gradientTransform="matrix(-0.87, 0.5, 0.87, 0.5, -1342.88, 1470.48)" gradientUnits="userSpaceOnUse"><stop offset="0" stop-color="#42e8e0"/><stop offset="0.15" stop-color="#33aeb9"/><stop offset="0.31" stop-color="#267a95"/><stop offset="0.47" stop-color="#1b5078"/><stop offset="0.62" stop-color="#132e61"/><stop offset="0.76" stop-color="#0d1651"/><stop offset="0.89" stop-color="#090847"/><stop offset="1" stop-color="#080344"/></radialGradient><linearGradient id="Áåçûìÿííûé_ãðàäèåíò_24" x1="284.88" y1="279.38" x2="193.09" y2="301.79" gradientUnits="userSpaceOnUse"><stop offset="0" stop-color="#5761d7"/><stop offset="0.18" stop-color="#5c66d9"/><stop offset="0.39" stop-color="#6a73df"/><stop offset="0.61" stop-color="#8289e8"/><stop offset="0.85" stop-color="#a3a7f5"/><stop offset="1" stop-color="#bcbeff"/></linearGradient><linearGradient id="Áåçûìÿííûé_ãðàäèåíò_24-2" x1="285.56" y1="271.19" x2="387.18" y2="271.19" xlink:href="#Áåçûìÿííûé_ãðàäèåíò_24"/><linearGradient id="Áåçûìÿííûé_ãðàäèåíò_24-3" x1="274.11" y1="269" x2="250.36" y2="246.04" xlink:href="#Áåçûìÿííûé_ãðàäèåíò_24"/><linearGradient id="Áåçûìÿííûé_ãðàäèåíò_24-4" x1="286.8" y1="291.95" x2="375.04" y2="291.95" xlink:href="#Áåçûìÿííûé_ãðàäèåíò_24"/><linearGradient id="Áåçûìÿííûé_ãðàäèåíò_24-5" x1="274.45" y1="301.88" x2="291.08" y2="301.88" xlink:href="#Áåçûìÿííûé_ãðàäèåíò_24"/><linearGradient id="Áåçûìÿííûé_ãðàäèåíò_3" x1="279.84" y1="285.37" x2="396.13" y2="285.37" gradientUnits="userSpaceOnUse"><stop offset="0" stop-color="#c0bff6"/><stop offset="0.29" stop-color="#c5c4f7"/><stop offset="0.64" stop-color="#d3d2f9"/><stop offset="1" stop-color="#e9e9fd"/></linearGradient><linearGradient id="Áåçûìÿííûé_ãðàäèåíò_254" x1="221.79" y1="182.01" x2="265.79" y2="182.01" gradientUnits="userSpaceOnUse"><stop offset="0" stop-color="#42e8e0"/><stop offset="0.15" stop-color="#43e3e0"/><stop offset="0.33" stop-color="#45d5df"/><stop offset="0.52" stop-color="#49bddd"/><stop offset="0.72" stop-color="#4e9cdb"/><stop offset="0.93" stop-color="#5472d8"/><stop offset="1" stop-color="#5761d7"/></linearGradient><linearGradient id="Áåçûìÿííûé_ãðàäèåíò_254-2" x1="221.79" y1="184.2" x2="265.79" y2="184.2" xlink:href="#Áåçûìÿííûé_ãðàäèåíò_254"/><linearGradient id="Áåçûìÿííûé_ãðàäèåíò_254-3" x1="317.71" y1="109.7" x2="275.93" y2="217.2" xlink:href="#Áåçûìÿííûé_ãðàäèåíò_254"/><linearGradient id="Áåçûìÿííûé_ãðàäèåíò_254-4" x1="275.03" y1="194.17" x2="341.5" y2="194.17" xlink:href="#Áåçûìÿííûé_ãðàäèåíò_254"/><clipPath id="clip-path" transform="translate(-65.11 -66.52)"><path class="cls-1" d="M298.49,235.81l-.86-.49c-3.15-1.82-2.76-5,.89-7.11l25.69-14.83c3.64-2.11,9.16-2.34,12.31-.51l.85.49c3.16,1.82,2.76,5-.88,7.11L310.8,235.3C307.15,237.4,301.64,237.63,298.49,235.81Z"/></clipPath><linearGradient id="Áåçûìÿííûé_ãðàäèåíò_254-5" x1="25.6" y1="164.68" x2="267.24" y2="164.68" xlink:href="#Áåçûìÿííûé_ãðàäèåíò_254"/><linearGradient id="Áåçûìÿííûé_ãðàäèåíò_254-6" x1="25.6" y1="185.29" x2="267.24" y2="185.29" xlink:href="#Áåçûìÿííûé_ãðàäèåíò_254"/><linearGradient id="Áåçûìÿííûé_ãðàäèåíò_254-7" x1="25.6" y1="157.16" x2="267.24" y2="157.16" xlink:href="#Áåçûìÿííûé_ãðàäèåíò_254"/><linearGradient id="Áåçûìÿííûé_ãðàäèåíò_254-8" x1="295.5" y1="224.34" x2="339.5" y2="224.34" xlink:href="#Áåçûìÿííûé_ãðàäèåíò_254"/><linearGradient id="Áåçûìÿííûé_ãðàäèåíò_254-9" x1="295.5" y1="226.52" x2="339.5" y2="226.52" xlink:href="#Áåçûìÿííûé_ãðàäèåíò_254"/><linearGradient id="Áåçûìÿííûé_ãðàäèåíò_24-6" x1="482.19" y1="229.67" x2="607.27" y2="229.67" gradientTransform="matrix(-1, 0, 0, 1, 751.4, 0)" xlink:href="#Áåçûìÿííûé_ãðàäèåíò_24"/><linearGradient id="Áåçûìÿííûé_ãðàäèåíò_3-2" x1="524.22" y1="225.5" x2="649.36" y2="225.5" gradientTransform="matrix(-1, 0, 0, 1, 751.4, 0)" xlink:href="#Áåçûìÿííûé_ãðàäèåíò_3"/><linearGradient id="Áåçûìÿííûé_ãðàäèåíò_3-3" x1="516.1" y1="215.87" x2="548.13" y2="215.87" gradientTransform="matrix(-1, 0, 0, 1, 751.4, 0)" xlink:href="#Áåçûìÿííûé_ãðàäèåíò_3"/><linearGradient id="Áåçûìÿííûé_ãðàäèåíò_3-4" x1="518.6" y1="210.1" x2="607.16" y2="210.1" gradientTransform="matrix(-1, 0, 0, 1, 751.4, 0)" xlink:href="#Áåçûìÿííûé_ãðàäèåíò_3"/><linearGradient id="Áåçûìÿííûé_ãðàäèåíò_24-7" x1="518.6" y1="232.81" x2="533.81" y2="232.81" gradientTransform="matrix(-1, 0, 0, 1, 751.4, 0)" xlink:href="#Áåçûìÿííûé_ãðàäèåíò_24"/></defs><title>img-banner-ill</title><g class="cls-2"><g id="Ñëîé_1" data-name="Ñëîé 1"><ellipse class="cls-3" cx="184.84" cy="212.11" rx="172.69" ry="99.71"/><path class="cls-4" d="M394,203.32V167.89c-.82-12.08-5.6-23.59-13.62-34.11v35.43c8,10.53,12.8,22,13.62,34.11Zm-17.72-39.08V128.8a101.33,101.33,0,0,0-9.38-9.24V155a101.41,101.41,0,0,1,9.38,9.25Zm-15.19-14V114.84a137.35,137.35,0,0,0-12-8.14v35.43a137.35,137.35,0,0,1,12,8.14Zm-20-2.23V91.67c32.64,17.31,53,42.08,53,69.48v56.38c0-27.4-20.38-52.17-53-69.49Z" transform="translate(-65.11 -66.52)"/><path class="cls-4" d="M281.42,121V110.8q-3.74-.72-7.55-1.33v10.18q3.81.61,7.55,1.33Zm-13.58-12.42v-9Q264,99,260,98.59v9q3.94.44,7.82,1Zm26.65,5.1V101.38q-3.58-.88-7.26-1.68V112q3.67.8,7.26,1.68ZM253.79,107V88.86q-4-.35-8-.58v18.14c2.7.15,5.38.35,8,.57Zm-29.18-1V87.84q-4.1.06-8.15.24v18.13q4-.18,8.15-.24Zm-14.49.59V83.75c-2.67.17-5.32.39-8,.63v22.81q4-.37,8-.63Zm29.22-.44V80c-2.44-.08-4.9-.14-7.37-.16h-.88V106H232c2.47,0,4.93.08,7.37.17ZM196,107.84V75.21q-3.9.45-7.74,1v32.64q3.84-.56,7.74-1ZM171.63,72.41A278,278,0,0,1,232,66.53c28.33.29,54.87,4.65,78,12.1V135c-23.08-7.44-49.62-11.81-78-12.09a277.36,277.36,0,0,0-60.34,5.88V72.41Z" transform="translate(-65.11 -66.52)"/><path class="cls-4" d="M75.72,148.88V137.53a68,68,0,0,0-8,15.13v33.61a68,68,0,0,1,8-15.12V159.8c1-1.41,2-2.8,3.1-4.17v6.12a90.05,90.05,0,0,1,6.78-7.6V148c10.63-10.71,24.8-20.09,41.56-27.65V109.46q-4.47,2-8.69,4.21-2.11,1.1-4.16,2.23a128.63,128.63,0,0,0-27.75,20.26l-1,1V131a91.63,91.63,0,0,0-6.78,7.6v6.12c-1.09,1.38-2.13,2.77-3.1,4.17Zm-10.21-.35C71.92,121,98.87,97.32,137.1,82.58V139c-38.23,14.75-65.18,38.44-71.59,66V148.53Z" transform="translate(-65.11 -66.52)"/><path class="cls-5" d="M85.6,137.11l1-1v10.91a121.55,121.55,0,0,1,19.85-15.56q3.81-2.43,7.9-4.7V115.9q2-1.14,4.16-2.23v10.91q4.22-2.19,8.69-4.2v0C110.4,127.94,96.23,137.32,85.6,148V137.11Zm-9.88,11.77c1-1.4,2-2.79,3.1-4.17v10.92c-1.09,1.37-2.13,2.76-3.1,4.17V148.88Z" transform="translate(-65.11 -66.52)"/><path class="cls-6" d="M118.47,113.67q4.22-2.19,8.69-4.21v10.92q-4.47,2-8.69,4.2V113.67Z" transform="translate(-65.11 -66.52)"/><path class="cls-6" d="M86.56,136.16a121.59,121.59,0,0,1,19.85-15.57v10.92a121.55,121.55,0,0,0-19.85,15.56V136.16Z" transform="translate(-65.11 -66.52)"/><path class="cls-7" d="M106.41,120.59q3.81-2.43,7.9-4.69v10.91q-4.09,2.26-7.9,4.7V120.59Z" transform="translate(-65.11 -66.52)"/><path class="cls-5" d="M67.71,152.66a68,68,0,0,1,8-15.13v11.35a68,68,0,0,0-8,15.13v10.91a68,68,0,0,1,8-15.12v11.35a68,68,0,0,0-8,15.12V152.66Z" transform="translate(-65.11 -66.52)"/><path class="cls-6" d="M67.71,164a68,68,0,0,1,8-15.13V159.8a68,68,0,0,0-8,15.12V164Z" transform="translate(-65.11 -66.52)"/><path class="cls-5" d="M78.82,155.63A90.05,90.05,0,0,1,85.6,148v6.12a90.05,90.05,0,0,0-6.78,7.6v-6.12Zm0-17A91.63,91.63,0,0,1,85.6,131v6.12a91.63,91.63,0,0,0-6.78,7.6v-6.12Z" transform="translate(-65.11 -66.52)"/><path class="cls-6" d="M78.82,144.71a91.63,91.63,0,0,1,6.78-7.6V148a90.05,90.05,0,0,0-6.78,7.6V144.71Z" transform="translate(-65.11 -66.52)"/><path class="cls-5" d="M380.39,133.78c8,10.52,12.8,22,13.62,34.11v35.43c-.82-12.07-5.6-23.58-13.62-34.11V133.78Z" transform="translate(-65.11 -66.52)"/><path class="cls-8" d="M366.91,119.56a101.33,101.33,0,0,1,9.38,9.24v35.44a101.41,101.41,0,0,0-9.38-9.25V119.56Z" transform="translate(-65.11 -66.52)"/><path class="cls-5" d="M349.15,106.7a137.35,137.35,0,0,1,12,8.14v35.43a137.35,137.35,0,0,0-12-8.14V106.7Z" transform="translate(-65.11 -66.52)"/><path class="cls-5" d="M287.23,99.7q3.67.8,7.26,1.68v12.28q-3.58-.89-7.26-1.68V99.7Z" transform="translate(-65.11 -66.52)"/><path class="cls-5" d="M273.87,109.47q3.81.61,7.55,1.33V121q-3.74-.72-7.55-1.33V109.47Z" transform="translate(-65.11 -66.52)"/><path class="cls-5" d="M260,98.59q3.94.43,7.82,1v9q-3.87-.53-7.82-1v-9Z" transform="translate(-65.11 -66.52)"/><path class="cls-5" d="M245.75,88.28q4,.24,8,.58V107c-2.66-.22-5.34-.42-8-.57V88.28Z" transform="translate(-65.11 -66.52)"/><path class="cls-5" d="M231.09,79.86H232c2.47,0,4.93.08,7.37.16v26.09c-2.44-.09-4.9-.14-7.37-.17h-.88V79.86Z" transform="translate(-65.11 -66.52)"/><path class="cls-8" d="M216.46,88.08q4-.18,8.15-.24V106q-4.1.06-8.15.24V88.08Z" transform="translate(-65.11 -66.52)"/><path class="cls-5" d="M202.16,84.38c2.64-.24,5.29-.46,8-.63v22.81q-4,.25-8,.63V84.38Z" transform="translate(-65.11 -66.52)"/><path class="cls-8" d="M188.25,76.22q3.84-.56,7.74-1v32.63q-3.9.47-7.74,1V76.22Z" transform="translate(-65.11 -66.52)"/><path class="cls-9" d="M283.37,322.09A5.07,5.07,0,1,1,278.3,317,5.07,5.07,0,0,1,283.37,322.09Z" transform="translate(-65.11 -66.52)"/><path class="cls-9" d="M333.27,265.48a5.07,5.07,0,1,1-5.06-5.07A5.06,5.06,0,0,1,333.27,265.48Z" transform="translate(-65.11 -66.52)"/><circle class="cls-9" cx="274" cy="237.65" r="5.07"/><path class="cls-9" d="M234.69,294.62a5.07,5.07,0,1,1-5.07-5.07A5.06,5.06,0,0,1,234.69,294.62Z" transform="translate(-65.11 -66.52)"/><path class="cls-9" d="M266,260.39a5.07,5.07,0,1,1-5.07-5.07A5.07,5.07,0,0,1,266,260.39Z" transform="translate(-65.11 -66.52)"/><path class="cls-10" d="M285.5,279.15l-55.71,10.73a5,5,0,0,0-.69.11l.05-.37-2.68-.68v3.16h0a1.22,1.22,0,0,0,0,.38c.34,1.23,2.35,2.08,4.5,1.88l55.71-10.73Z" transform="translate(-65.11 -66.52)"/><path class="cls-11" d="M332.16,260l-1.7,1.43a6.36,6.36,0,0,0-5.22.39l-39.68,17.27,5.56,3.21,39.67-17.27a2.21,2.21,0,0,0,1.35-1.88h0Z" transform="translate(-65.11 -66.52)"/><path class="cls-12" d="M264.71,256.19c-1-1.12-3.35-1.56-5.29-1h0a3.58,3.58,0,0,0-.63.23,2.88,2.88,0,0,0-.35-.45,7.84,7.84,0,0,0-1.16-.83v3.15h0a1.55,1.55,0,0,0,.42,1l25.6,23.38,7-2.06Z" transform="translate(-65.11 -66.52)"/><path class="cls-13" d="M342.77,298.81l-.94.33-.54,1.13a4.42,4.42,0,0,0-.67-.25L290.37,279.6l-3.57,4,50.26,20.42c1.93.57,4.29.12,5.28-1h0a1.5,1.5,0,0,0,.41-1.05h0Z" transform="translate(-65.11 -66.52)"/><path class="cls-14" d="M283.33,281.67,275.07,317l-.61-.32V320l0,0c.11,1,1.45,1.93,3.3,2.1,2.14.2,4.15-.64,4.49-1.88l8.82-37.8Z" transform="translate(-65.11 -66.52)"/><path class="cls-15" d="M340.62,296.87,294,277.93l36.78-16c1.65-.95,1.83-2.39.4-3.21l-.38-.23a6.21,6.21,0,0,0-5.57.23l-36.78,16L264.71,253c-1-1.12-3.35-1.56-5.29-1h0c-1.93.57-2.7,1.93-1.71,3l23.75,21.68-51.67,10c-2.14.2-3.61,1.36-3.27,2.6s2.35,2.08,4.5,1.88l51.67-9.95-8.19,35.06c-.34,1.24,1.13,2.4,3.27,2.6s4.15-.65,4.49-1.89L290.44,282l46.62,18.94c1.93.57,4.29.13,5.28-1S342.56,297.44,340.62,296.87ZM289,278l-.87,1-1.89-.17-.3-1.09,1.71-.5Z" transform="translate(-65.11 -66.52)"/><path class="cls-9" d="M287.41,280.88h0a4.07,4.07,0,0,1-4.06-4.07V229.76h8.13v47.05A4.07,4.07,0,0,1,287.41,280.88Z" transform="translate(-65.11 -66.52)"/><path class="cls-16" d="M224.77,193.49l-.85-.5c-3.15-1.82-2.76-5,.89-7.1l25.69-14.84c3.64-2.1,9.15-2.33,12.31-.51l.85.49c3.16,1.83,2.76,5-.88,7.11L237.09,193C233.44,195.08,227.93,195.31,224.77,193.49Z" transform="translate(-65.11 -66.52)"/><path class="cls-17" d="M265.79,173.86h0a3.74,3.74,0,0,0-2.11-2.84l-.85-.49c-3.16-1.82-8.67-1.59-12.31.51l-25.69,14.84c-1.94,1.11-2.95,2.53-3,3.89h0v4.47h0a3.66,3.66,0,0,0,2.12,3.1l.85.49c3.16,1.82,8.67,1.59,12.32-.51l25.69-14.83c1.87-1.08,2.88-2.45,3-3.77h0Z" transform="translate(-65.11 -66.52)"/><path class="cls-18" d="M279.17,214.18l-53.82,31c-2.66,1.54-4.82-.09-4.82-3.65h0c0-3.55,2.16-7.68,4.82-9.22L287,196.79v2.43C287,205,283.49,211.69,279.17,214.18Z" transform="translate(-65.11 -66.52)"/><g class="cls-19"><path class="cls-20" d="M283.13,81.58h0c-1.87-1-4.28-.87-6.91.65l-1.6.92c-5.95,3.44-10.78,12.65-10.78,20.59V210.16l14.3-8.25v3.38l-17.15,14-39,26.12,54.75,30.95,31.48-24.23,17.92-15.31,11.18-124.54Z" transform="translate(-65.11 -66.52)"/></g><path class="cls-21" d="M243,257.24a6.68,6.68,0,0,1,1.42-6.73c2.88-2.88,18-9.25,19.11-9.93s6.54-4.69,6.54-4.69l1.66-3.72s-30.73,3-31.14,3.47-14.39,13-14,13.57,9.63,2.78,9.63,2.78l1.78,2.44Z" transform="translate(-65.11 -66.52)"/><path class="cls-22" d="M330.73,113l-1.61.93c-5.95,3.43-10.77,12.65-10.77,20.58V241l-38.49,22.2c-2.67,1.54-4.83,5.67-4.83,9.23h0c0,3.55,2.16,5.18,4.83,3.64l53.81-31c4.33-2.5,7.83-9.2,7.83-15V121.17C341.5,113.24,336.68,109.59,330.73,113Z" transform="translate(-65.11 -66.52)"/><path class="cls-23" d="M228.46,280.29s-7.93,5.09-10.61,8.08-8,9.14-5.8,12.06,9.56,4.56,17.49-2.74S235.22,290,242,286.33s8.61-7.56,7.8-9.81-4.15-6.23-6-5.38S228.46,280.29,228.46,280.29Z" transform="translate(-65.11 -66.52)"/><path class="cls-23" d="M267,301.65A80,80,0,0,1,262.7,310c-1.46,2.08-8.57,14.07-4.86,16.82s10.75,2,16.32-4.05,6.8-13.39,8.17-15.81,4.79-8.86,3.17-12.58-2-4.36-2-4.36Z" transform="translate(-65.11 -66.52)"/><path class="cls-9" d="M238.23,212.47s-23.56,23.24-27.42,34.91a13,13,0,0,0,2.92,11.26c4.56,4.94,14.23,21.11,14.23,21.11s7.21,8.73,16.53,1.75c0,0,4.22-6.73,1.63-11.21s-9.48-18.77-9.48-18.77,15.1-10.4,22.56-13a103.79,103.79,0,0,0,11.43-4.66,35.57,35.57,0,0,1-6.81,13.9c-5.45,6.86-14.58,17.89-11.55,25.57a64.32,64.32,0,0,0,7.67,14.46c2.85,4.42,5.56,13.63,8,14.59s13.7,2.07,15.53-5.27-3.84-21.59-6.4-26.41c0,0,30.47-35.15,33.37-39S247.66,206.51,238.23,212.47Z" transform="translate(-65.11 -66.52)"/><path class="cls-23" d="M246.12,270.29c-2.59-4.48-9.48-18.77-9.48-18.77s15.1-10.4,22.56-13a103.79,103.79,0,0,0,11.43-4.66,77.05,77.05,0,0,0,8.13-15.51c-17.18-5-35.83-8.83-40.53-5.86,1.66,4.11,10.42,4.08,10.42,4.08s3.27,8,5.44,9,7.37-.1,7.37-.1-.84,1.31-4.55,4S230,251.08,230,251.08s1.32.75,7.49,11.91,7,18.51,7,18.51S248.71,274.77,246.12,270.29Z" transform="translate(-65.11 -66.52)"/><path class="cls-23" d="M298.19,224.8c-13.62-1.3-29.48-1.41-25.91,5.74a22.85,22.85,0,0,0,18.24,12.67c-.08,4.46-18.77,26-18.77,26l4.36,8.47c4.35,8.47,3.8,23.89,3.8,23.89a6.85,6.85,0,0,0,3.55-4.47c1.83-7.33-3.84-21.59-6.4-26.41,0,0,30.47-35.15,33.37-39C311.29,230.52,306.13,227.85,298.19,224.8Z" transform="translate(-65.11 -66.52)"/><path class="cls-24" d="M214.41,150.51,218,147.7s19.54-10.85,26-14.36a44.23,44.23,0,0,0,9.77-8,13.63,13.63,0,0,1,9.75-4.15l34.22-.17s4,6.39,5.33,7.65c1,.92,10.27,8.7,16.93,15.11a28.75,28.75,0,0,1,7.76,12.91c3.81,13.44,3.76,40.52,4.33,59.88a58.72,58.72,0,0,1-8.21,2.18c-5.82,1.24-5.11.45-5.11.45s-8.73,19.64-20.57,21.54-27.8-3.65-30.65-22.24c0,0-23.09-3.46-29.35-6a1,1,0,0,1-.41-1.45c2.79-3.71,13.21-18.07,14.2-27.43,1.14-10.83.79-26.53-.07-30.82,0,0-17.41,6.56-23,7.72,0,0-21.2,23.3-30.06,29.63,0,0,3-4.76-3.06-8Z" transform="translate(-65.11 -66.52)"/><path class="cls-9" d="M324,218.72c.89-.19,1.68-.37,2.42-.55l-1.23-2.41L293,212.36l-18.76,1-6.45,6.13a30.13,30.13,0,0,0,1.52,5.51s8,1.15,11.67.36,32.28,3.42,32.34,3.42a65.94,65.94,0,0,0,5.49-9.53C318.79,219.38,319.14,219.74,324,218.72Z" transform="translate(-65.11 -66.52)"/><path class="cls-25" d="M280.59,207.5a.27.27,0,0,0-.26-.21c-1.55,0-11.58-.34-15.38-1.64-4.12-1.43-8.48-1.16-8.7-.93s-7.07,3.15-7.48,4.33-1,4.69-.12,6a20.23,20.23,0,0,1,1.34,2.24l.72.08a21.46,21.46,0,0,0,1.44,2.46,4.12,4.12,0,0,1,.56.92c.43.93,1.19,2.47,1.51,2.51a17.44,17.44,0,0,0,3.12.33c.44-.12.83-1.46.65-2.06a.25.25,0,0,1,.2-.34,30,30,0,0,1,7.3-.16c4.46.41,10.77-2.5,11.35-2.77a.14.14,0,0,1,.09,0l6.29-.57a.28.28,0,0,0,.25-.36Z" transform="translate(-65.11 -66.52)"/><path class="cls-26" d="M273,141.14s-5.36,19.75.31,40.05c0,0,20.61-38.46,22.85-44.7s3.05-10.67,1-12.92-20.72,9.34-20.72,9.34Z" transform="translate(-65.11 -66.52)"/><path class="cls-27" d="M278.32,172.11s3.93-12,3.24-15.89a45.61,45.61,0,0,0-1.66-6.66l3.54-3.27,1.56,3.24s7.8-5.72,8.32-6.78c0,0-6.28,4.31-8.25,4.95a5.82,5.82,0,0,0-2.17-2.07c-1.24-.52-4.31,3.68-4.31,3.68l-.57,7.3-3.08,17,1.07,2.53Z" transform="translate(-65.11 -66.52)"/><path class="cls-9" d="M274.87,141.37s-.74,7.76-.1,8.3,3.05.59,4.16,0,4-4,4-4S279.41,139.48,274.87,141.37Z" transform="translate(-65.11 -66.52)"/><path class="cls-9" d="M279.08,148.25a22.11,22.11,0,0,1,.08,12.83,108.14,108.14,0,0,0-2.78,14.37l-3.06,5.74s-3.82-11.24-2.57-22.53c.56-5.07,4.43-9.55,4.43-9.55Z" transform="translate(-65.11 -66.52)"/><path class="cls-25" d="M263.38,109.65s-.95,4.8-.6,5.71,1.55,1.52,1.26,3.39.78,7.47,1.34,9.34c0,0-.41,2,.15,2.61s1.28.59,1.81,1.53.7,5.79,2.66,7.41a7.26,7.26,0,0,0,5.84,1.6,9.49,9.49,0,0,0,2.67-1.36l2.95,1.24s15.33-4.35,14.85-15.12v-1.14a12.39,12.39,0,0,0,1.41-2.52c.31-1,2.85-5.48,1.57-7.41,0,0,5.94-23.44-12.38-24.85S265.82,101.5,263.38,109.65Z" transform="translate(-65.11 -66.52)"/><path class="cls-28" d="M296.31,126v-.13a3.3,3.3,0,0,0-2.1-.64c-2.1.37-1.62-4-1.62-4s-.39.79-1.46,6.35-12.62,12.28-12.62,12.28l2.95,1.24S296.79,136.77,296.31,126Z" transform="translate(-65.11 -66.52)"/><path class="cls-29" d="M263.46,99.47c-1.79,3.8-2.65,8.37,1.1,11.44,0,0,3.15.86,9.13-1.92a14,14,0,0,1,10.27-.31,2.44,2.44,0,0,1,1.65,2.38l-.09,3.34a2.12,2.12,0,0,0,1.29,2l2.78,1.18.55,3.25A1.55,1.55,0,0,0,292.2,122l.71-.25s.41-7.22,6.37-6.86c0,0,4.82-10.43-.12-20s-18.49-8.86-21.38-7.78c-3.8,1.43-3.27,1.22-5.45,2.56A23.27,23.27,0,0,0,263.46,99.47Z" transform="translate(-65.11 -66.52)"/><path class="cls-9" d="M312.21,173s-2.77,20.45-3.91,26.24l-9,4.73,15.93-1Z" transform="translate(-65.11 -66.52)"/><path class="cls-30" d="M299.28,114.93a27.16,27.16,0,0,0,2-8.36,21.57,21.57,0,0,1-15.69,4.49l-.09,3.34a2.12,2.12,0,0,0,1.29,2l2.78,1.18.55,3.25A1.55,1.55,0,0,0,292.2,122l.71-.25S293.32,114.57,299.28,114.93Z" transform="translate(-65.11 -66.52)"/><path class="cls-9" d="M303.24,132.9s-4.74,16.3-5.73,19.44l-3.82-.41.69,5.16L273.82,184.2,296.65,158l-.9-4.6,3.46.37Z" transform="translate(-65.11 -66.52)"/><path class="cls-31" d="M283.06,221.48s48.22-1.57,49.45-2.45,1.45-13.28,1.34-20.47c-.08-5.05,0-24.78-4.33-38.63,3.39,11.73,1.6,53.18.07,55.29s-47.41,3.33-47.41,3.33h0C282.68,220.27,283.06,221.48,283.06,221.48Z" transform="translate(-65.11 -66.52)"/><path class="cls-25" d="M188.3,182.9s-.18,1.22-2.28,2.41-7.46,3.84-8.33,4.6-4.74,4.16-4.86,4.61-1.27,4.29-1.26,4.52.37,2,.37,2l-1.19,5.69s-1.51,2.2.13,2.8a2.1,2.1,0,0,0,2.61-1.36,27.12,27.12,0,0,0,4.31-2.6c1.83-1.41,9.15-7.3,10.39-6.94s.1,2.47-.5,2.83-4.48,4.16-2.85,6.79,2.68-1.49,3.76-2.32,3.39-4.14,4.81-4.55,4-5.71,4.35-8.09,2-3.9,2.64-4.66-1.31-6.66-1.31-6.66l-7.25-2.26-2.54,1.65Z" transform="translate(-65.11 -66.52)"/><g class="cls-32"><path class="cls-33" d="M326,151.81c-1.51-2.4-2.21-.63-4.24,1.35a31.39,31.39,0,0,0-8,12c-3.24,9.51-2.08,33.26-1,36.66,0,0-30.2,4.95-32.3,4.86s2.6,14.78,2.6,14.78,48.22-1.57,49.45-2.45,1.45-13.28,1.34-20.47C333.75,192.39,333.87,164.29,326,151.81Z" transform="translate(-65.11 -66.52)"/><path class="cls-31" d="M283.06,221.48s48.22-1.57,49.45-2.45,1.45-13.28,1.34-20.47c-.08-5.05,0-24.78-4.33-38.63,3.39,11.73,1.6,53.18.07,55.29s-47.41,3.33-47.41,3.33h0C282.68,220.27,283.06,221.48,283.06,221.48Z" transform="translate(-65.11 -66.52)"/></g><polygon class="cls-34" points="182.82 234.44 25.61 143.67 110.03 94.93 267.24 185.7 182.82 234.44"/><polygon class="cls-35" points="25.61 136.14 25.61 143.67 182.82 234.44 267.24 185.7 267.24 178.17 182.82 226.91 25.61 136.14"/><polygon class="cls-36" points="182.82 226.91 25.61 136.14 110.03 87.4 267.24 178.17 182.82 226.91"/><path class="cls-37" d="M257.14,222.73s6,2.15,10.66,1.39,26.83-1.21,26.83-1.21l-3.49-2-7.79-5.43L264,216.77l-7.45,2.67Z" transform="translate(-65.11 -66.52)"/><path class="cls-25" d="M280.59,207.5a.27.27,0,0,0-.26-.21c-1.55,0-11.58-.34-15.38-1.64-4.12-1.43-8.48-1.16-8.7-.93s-7.07,3.15-7.48,4.33-1,4.69-.12,6a20.23,20.23,0,0,1,1.34,2.24l.72.08a21.46,21.46,0,0,0,1.44,2.46,4.12,4.12,0,0,1,.56.92c.43.93,1.19,2.47,1.51,2.51a17.44,17.44,0,0,0,3.12.33c.44-.12.83-1.46.65-2.06a.25.25,0,0,1,.2-.34,30,30,0,0,1,7.3-.16c4.46.41,10.77-2.5,11.35-2.77a.14.14,0,0,1,.09,0l6.29-.57a.28.28,0,0,0,.25-.36Z" transform="translate(-65.11 -66.52)"/><path class="cls-38" d="M298.49,235.81l-.86-.49c-3.15-1.82-2.76-5,.89-7.11l25.69-14.83c3.64-2.11,9.16-2.34,12.31-.51l.85.49c3.16,1.82,2.76,5-.88,7.11L310.8,235.3C307.15,237.4,301.64,237.63,298.49,235.81Z" transform="translate(-65.11 -66.52)"/><path class="cls-39" d="M339.5,216.18h0a3.72,3.72,0,0,0-2.11-2.83l-.85-.49c-3.15-1.83-8.67-1.6-12.31.51l-25.69,14.83c-1.94,1.11-2.95,2.53-3,3.89h0v4.47h0a3.65,3.65,0,0,0,2.12,3.09l.86.49c3.15,1.82,8.66,1.6,12.31-.51l25.69-14.83c1.87-1.08,2.88-2.45,3-3.77h0Z" transform="translate(-65.11 -66.52)"/><path class="cls-40" d="M326,151.81c-1.51-2.4-2.21-.63-4.24,1.35a31.39,31.39,0,0,0-8,12c-3.24,9.51-2.08,33.26-1,36.66,0,0-30.2,4.95-32.3,4.86s2.6,14.78,2.6,14.78,48.22-1.57,49.45-2.45,1.45-13.28,1.34-20.47C333.75,192.39,333.87,164.29,326,151.81Z" transform="translate(-65.11 -66.52)"/><path class="cls-9" d="M283.06,221.48s48.22-1.57,49.45-2.45,1.45-13.28,1.34-20.47c-.08-5.05,0-24.78-4.33-38.63,3.39,11.73,1.6,53.18.07,55.29s-47.41,3.33-47.41,3.33h0C282.68,220.27,283.06,221.48,283.06,221.48Z" transform="translate(-65.11 -66.52)"/><path class="cls-37" d="M196.61,196.79s17.24-13.47,19.71-14.78a17,17,0,0,0,3.5-2.29l-5.77-3.33-9.76,4L192,192.59,173.07,206v3.12s15.61-6.7,17.36-7.85S196.61,196.79,196.61,196.79Z" transform="translate(-65.11 -66.52)"/><path class="cls-41" d="M186.33,209a34.7,34.7,0,0,1,6-4.38c2.37-1.09,6.14-4,6.6-6.23s4.39-7.15,4.39-7.15l-6.29,3.62-9.1,5.26-15.14,8.79a2.59,2.59,0,0,0,2.84.41c1.92-.65,5.51-2.95,7.19-3.15s4.45-.72,4.45-.72Z" transform="translate(-65.11 -66.52)"/><path class="cls-25" d="M188.3,182.9s-.18,1.22-2.28,2.41-7.46,3.84-8.33,4.6-4.74,4.16-4.86,4.61-1.27,4.29-1.26,4.52.37,2,.37,2l-1.19,5.69s-1.51,2.2.13,2.8a2.1,2.1,0,0,0,2.61-1.36,27.12,27.12,0,0,0,4.31-2.6c1.83-1.41,9.15-7.3,10.39-6.94s.1,2.47-.5,2.83-4.48,4.16-2.85,6.79,2.68-1.49,3.76-2.32,3.39-4.14,4.81-4.55,4-5.71,4.35-8.09,2-3.9,2.64-4.66-1.31-6.66-1.31-6.66l-7.25-2.26-2.54,1.65Z" transform="translate(-65.11 -66.52)"/><path class="cls-40" d="M253.71,143.13s-.27-10.8,1.57-19.09a14.38,14.38,0,0,0-1.44,1.27,44.23,44.23,0,0,1-9.77,8c-6.5,3.51-26,14.36-26,14.36l-3.62,2.81c-11.45,9-24.25,28.52-26.11,32.39.89-1.19,3.2-3.16,7.61-.81,6.09,3.24,3.19,8.1,3.19,8.1C208,183.85,229,160.46,229,160.46c5.2-1.09,20.82-6.92,22.76-7.65A25.83,25.83,0,0,0,253.71,143.13Z" transform="translate(-65.11 -66.52)"/><path class="cls-9" d="M229,160.46c5.55-1.16,23-7.72,23-7.72.79,3.94,1.15,17.55.31,28.13,5.15-19.23,1.41-37.74,1.41-37.74-1.42,6.78-29,16.14-29,16.14-4.39,6.77-25.3,26.29-25.3,26.29h0a5.42,5.42,0,0,1-.42,4.52C207.83,183.76,229,160.46,229,160.46Z" transform="translate(-65.11 -66.52)"/><path class="cls-42" d="M144.14,216.73l4.18,2.19,42-24.22a3,3,0,0,1,2.74.11l72.36,41.77c.69-.38,3.84-1.9,3.84-1.9l-1.53,4h0a.93.93,0,0,1-.43.48l-44.19,25.51a3,3,0,0,1-2.73-.12l-74.05-42.74a1.42,1.42,0,0,1-.62-.66h0Z" transform="translate(-65.11 -66.52)"/><path class="cls-43" d="M144.78,217.42l75.89,43.81a3.12,3.12,0,0,0,2.8.12l45.29-26.15c.72-.41.62-1.14-.21-1.62l-75.88-43.81a3.11,3.11,0,0,0-2.81-.11L144.58,215.8C143.86,216.21,144,216.94,144.78,217.42Z" transform="translate(-65.11 -66.52)"/><path class="cls-44" d="M144.78,217l75.89,43.81a3.09,3.09,0,0,0,2.8.12l45.29-26.14a1,1,0,0,0,.44-.49.77.77,0,0,1-.44.92l-45.29,26.15a3.12,3.12,0,0,1-2.8-.12l-75.89-43.81c-.56-.32-.77-.76-.64-1.13A1.3,1.3,0,0,0,144.78,217Z" transform="translate(-65.11 -66.52)"/><path class="cls-45" d="M243.56,251.75v-.83c0-.08-.05-.11-.11-.08l-2.94,1.7a.23.23,0,0,0-.1.2v.83c0,.08,0,.12.1.08l2.94-1.69A.27.27,0,0,0,243.56,251.75Z" transform="translate(-65.11 -66.52)"/><path class="cls-45" d="M239.17,254.29v-.83c0-.08,0-.12-.11-.09l-2.94,1.7a.25.25,0,0,0-.1.2v.84c0,.08,0,.11.1.08l2.94-1.7A.24.24,0,0,0,239.17,254.29Z" transform="translate(-65.11 -66.52)"/><path class="cls-46" d="M243.23,241.15l-63.06-36.41a1.37,1.37,0,0,0-1.36,0l-22.46,13a.49.49,0,0,0,0,.84l63,36.39a1.37,1.37,0,0,0,1.36,0l22.49-13A.49.49,0,0,0,243.23,241.15Z" transform="translate(-65.11 -66.52)"/><path class="cls-47" d="M243.23,242l-.23.13-62.83-36.28a1.37,1.37,0,0,0-1.36,0L156.58,218.7l-.23-.13a.49.49,0,0,1,0-.84l22.46-13a1.37,1.37,0,0,1,1.36,0l63.06,36.41A.49.49,0,0,1,243.23,242Z" transform="translate(-65.11 -66.52)"/><polygon class="cls-9" points="112 141.51 170.09 175.05 172.97 173.9 114.44 140.1 112 141.51"/><polygon class="cls-9" points="106.03 144.96 157.41 174.62 159.85 173.22 108.47 143.55 106.03 144.96"/><polygon class="cls-9" points="102.14 147.2 162.64 182.13 165.07 180.72 104.58 145.8 102.14 147.2"/><polygon class="cls-9" points="98.25 149.45 158.75 184.37 161.18 182.97 100.69 148.04 98.25 149.45"/><polygon class="cls-9" points="94.37 151.69 154.86 186.62 157.29 185.21 96.8 150.29 94.37 151.69"/><polygon class="cls-9" points="170.09 175.05 172.53 176.45 174.96 175.05 172.53 173.64 170.09 175.05"/><polygon class="cls-9" points="154.46 172.91 166.56 179.9 168.99 178.49 156.81 171.46 154.46 172.91"/><path class="cls-48" d="M220.78,224.83l-17-9.82a.74.74,0,0,1,0-1.39l11.63-6.71a2.69,2.69,0,0,1,2.41,0l17,9.82a.74.74,0,0,1,0,1.39l-11.63,6.71A2.67,2.67,0,0,1,220.78,224.83Z" transform="translate(-65.11 -66.52)"/><path class="cls-47" d="M234.81,217.3l-17-9.82a2.69,2.69,0,0,0-2.41,0l-11.63,6.71a1.1,1.1,0,0,0-.42.41c-.17-.33,0-.71.42-1l11.63-6.71a2.69,2.69,0,0,1,2.41,0l17,9.82c.46.26.59.64.42,1A1.1,1.1,0,0,0,234.81,217.3Z" transform="translate(-65.11 -66.52)"/><path class="cls-49" d="M144.26,215.61l9.59-56.91-.77-.33,1.16-.66h0a.85.85,0,0,1,.9.06L231.79,202a2.16,2.16,0,0,1,1,1.94l-9.67,57.37a.71.71,0,0,1-.41.58h0l-1.14.66-.19-1.06.06,0-76.2-44A2.15,2.15,0,0,1,144.26,215.61Z" transform="translate(-65.11 -66.52)"/><path class="cls-50" d="M231.36,203.59l1.26-.55a1.63,1.63,0,0,1,.17.94l-9.67,57.37a.71.71,0,0,1-.41.58h0l-1.14.66-.19-1.06.06,0-3.85-2.23Z" transform="translate(-65.11 -66.52)"/><path class="cls-24" d="M144.05,218.24l76.66,44.27c.59.34,1.1.14,1.21-.47l9.66-57.37a2.15,2.15,0,0,0-1-1.94l-76.67-44.27c-.59-.34-1.09-.14-1.2.47l-9.67,57.37A2.16,2.16,0,0,0,144.05,218.24Z" transform="translate(-65.11 -66.52)"/><path class="cls-4" d="M116.45,278.39v-9.52q2.86,1.53,5.85,3v9.52c-2-1-3.94-2-5.85-3Zm-18.76-11.9V248.94c1.59,1.19,3.22,2.37,4.9,3.51V270q-2.52-1.72-4.9-3.52Zm8.94,6.18V252q2.64,1.67,5.4,3.26v20.7q-2.76-1.59-5.4-3.26Zm-24-19.77v-23q1.81,2,3.81,4v23q-2-2-3.81-4Zm7,7V235c1.41,1.28,2.86,2.53,4.37,3.75v24.89c-1.51-1.23-3-2.48-4.37-3.75Zm-17.93-22v-27c.81,1.47,1.68,2.91,2.61,4.34v27q-1.39-2.15-2.61-4.33Zm4.9,7.67v-35.1c1,1.4,2.09,2.79,3.23,4.16v35.1c-1.14-1.37-2.21-2.76-3.23-4.16ZM68,229.91V190.27c.58,1.52,1.24,3,1.95,4.5v39.64c-.71-1.49-1.37-3-1.95-4.5Zm66.33,8.8c-37.72-15.19-63.77-39.2-69.23-66.7v56.38c5.46,27.5,31.51,51.5,69.23,66.7V238.71Z" transform="translate(-65.11 -66.52)"/><path class="cls-4" d="M244.93,301.33V288.62q9.73-.54,19.12-1.7v12.72q-9.37,1.16-19.12,1.69Zm-30.5.06V278.22q5.83.28,11.78.35,4.06,0,8.08,0v23.18q-4,.07-8.08,0-5.94-.06-11.78-.36Zm-29.39-3V262.92c6.14,1,12.44,1.75,18.85,2.31v35.43c-6.41-.56-12.71-1.33-18.85-2.31Zm89.06-.15V260.78q9.15-1.48,17.86-3.55v37.42q-8.7,2.06-17.86,3.55ZM307,244.66c-24,7.4-51.59,11.47-80.79,11.18a274.08,274.08,0,0,1-57.66-6.56v56.38a274.75,274.75,0,0,0,57.66,6.55c29.2.3,56.76-3.78,80.79-11.17V244.66Z" transform="translate(-65.11 -66.52)"/><path class="cls-4" d="M347.5,260.79V249.87c26.31-15.53,43.43-36.25,46.23-59.29V201.5c-2.8,23-19.92,43.75-46.23,59.29Zm46.61-41.58V162.84C393.27,190.41,372,215,338.63,232v56.37c33.33-17,54.64-41.58,55.48-69.16Z" transform="translate(-65.11 -66.52)"/><path class="cls-5" d="M393.73,190.58c-2.8,23-19.92,43.76-46.23,59.29v10.92c26.31-15.54,43.43-36.25,46.23-59.29V190.58Z" transform="translate(-65.11 -66.52)"/><path class="cls-8" d="M203.89,265.23c-6.41-.56-12.71-1.34-18.85-2.31v35.43c6.14,1,12.44,1.75,18.85,2.31V265.23Z" transform="translate(-65.11 -66.52)"/><path class="cls-8" d="M264.05,286.92q-9.37,1.15-19.12,1.7v12.71q9.73-.52,19.12-1.69V286.92Z" transform="translate(-65.11 -66.52)"/><path class="cls-8" d="M292,257.23q-8.7,2.06-17.86,3.55V298.2q9.15-1.49,17.86-3.55V257.23Z" transform="translate(-65.11 -66.52)"/><path class="cls-5" d="M234.29,278.54q-4,.07-8.08,0-5.94-.06-11.78-.35v23.17q5.83.3,11.78.36,4.06,0,8.08,0V278.54Z" transform="translate(-65.11 -66.52)"/><path class="cls-8" d="M70,194.77c-.71-1.49-1.37-3-1.95-4.5v39.64c.58,1.52,1.24,3,1.95,4.5V194.77Z" transform="translate(-65.11 -66.52)"/><path class="cls-8" d="M74.36,215.23c-.93-1.43-1.8-2.87-2.61-4.34v27q1.22,2.19,2.61,4.33v-27Z" transform="translate(-65.11 -66.52)"/><path class="cls-5" d="M79.88,214.61c-1.14-1.37-2.21-2.76-3.23-4.16v35.1c1,1.4,2.09,2.79,3.23,4.16v-35.1Z" transform="translate(-65.11 -66.52)"/><path class="cls-8" d="M86.46,233.89q-2-1.95-3.81-4v23q1.81,2,3.81,4v-23Z" transform="translate(-65.11 -66.52)"/><path class="cls-5" d="M94.05,238.75c-1.51-1.22-3-2.47-4.37-3.75v24.89c1.41,1.27,2.86,2.52,4.37,3.75V238.75Z" transform="translate(-65.11 -66.52)"/><path class="cls-5" d="M102.59,252.45c-1.68-1.14-3.31-2.32-4.9-3.51v17.55q2.39,1.8,4.9,3.52V252.45Z" transform="translate(-65.11 -66.52)"/><path class="cls-5" d="M112,255.23q-2.76-1.59-5.4-3.26v20.7q2.64,1.66,5.4,3.26v-20.7Z" transform="translate(-65.11 -66.52)"/><path class="cls-5" d="M122.3,271.86q-3-1.46-5.85-3v9.52c1.91,1,3.86,2,5.85,3v-9.52Z" transform="translate(-65.11 -66.52)"/></g></g></svg>