<svg height="512pt" viewBox="-11 0 512 512.001" width="512pt" xmlns="http://www.w3.org/2000/svg"><path d="m307.5 255h-67.5v-17.5c0-15.164062-12.335938-27.5-27.5-27.5h-49.144531l-13.578125-54.320312c-.835938-3.339844-3.835938-5.679688-7.277344-5.679688h-30c-4.140625 0-7.5 3.355469-7.5 7.5v97.5h-15v-120h37.5c4.140625 0 7.5-3.359375 7.5-7.5v-30c0-4.140625-3.359375-7.5-7.5-7.5h-90c-4.140625 0-7.5 3.359375-7.5 7.5v30c0 4.140625 3.359375 7.5 7.5 7.5h37.5v120h-67.5c-4.140625 0-7.5 3.355469-7.5 7.5v30c0 4.140625 3.359375 7.5 7.5 7.5h7.5v204.496094c0 4.144531 3.359375 7.5 7.5 7.5h270c4.140625 0 7.5-3.355469 7.5-7.5v-204.496094h7.5c4.140625 0 7.5-3.359375 7.5-7.5v-30c0-4.144531-3.359375-7.5-7.5-7.5zm-262.5-150h75v15h-75zm91.644531 60 11.25 45h-27.894531v-45zm-16.644531 60h92.5c6.894531 0 12.5 5.605469 12.5 12.5v17.5h-105zm-90 272v-17h255v17zm255-32h-255v-165h15v82.5c0 4.140625 3.359375 7.5 7.5 7.5h210c4.140625 0 7.5-3.359375 7.5-7.5v-82.5h15zm-30-165v75h-15v-52.5c0-4.144531-3.359375-7.5-7.5-7.5h-60c-4.140625 0-7.5 3.355469-7.5 7.5v52.5h-15v-52.5c0-4.144531-3.359375-7.5-7.5-7.5h-60c-4.140625 0-7.5 3.355469-7.5 7.5v52.5h-15v-75zm-75 75v-45h45v45zm-90 0v-45h45v45zm210-90h-285v-15h285zm0 0"/><path d="m490.976562 336.933594c-3.3125-43.855469-20.214843-69.5-25.976562-77.074219v-67.359375c0-15.164062-12.335938-27.5-27.5-27.5h-50c-12.5625 0-23.179688 8.472656-26.453125 20h-53.546875c-12.40625 0-22.5 10.09375-22.5 22.5s10.09375 22.5 22.5 22.5h30c4.140625 0 7.5-3.359375 7.5-7.5 0-4.144531-3.359375-7.5-7.5-7.5h-30c-4.136719 0-7.5-3.363281-7.5-7.5s3.363281-7.5 7.5-7.5h52.5v59.859375c-5.761719 7.574219-22.667969 33.21875-25.980469 77.074219-.210937 2.804687 1.164063 5.492187 3.5625 6.960937.75.457031 13.5 8.089844 37.417969 12.683594v132.515625l-24.871094 8.289062c-3.933594 1.3125-6.054687 5.558594-4.746094 9.488282 1.046876 3.144531 3.972657 5.128906 7.113282 5.128906.785156 0 1.585937-.125 2.375-.386719l30-10c3.0625-1.019531 5.125-3.886719 5.125-7.113281v-135.695312c6.859375.742187 14.351562 1.195312 22.5 1.195312 8.152344 0 15.644531-.453125 22.5-1.195312v135.695312c0 3.226562 2.066406 6.09375 5.128906 7.113281l30 10c.789062.261719 1.585938.386719 2.375.386719 3.136719 0 6.066406-1.988281 7.113281-5.128906 1.308594-3.929688-.816406-8.179688-4.746093-9.488282l-24.871094-8.289062v-132.515625c23.917968-4.589844 36.667968-12.226563 37.417968-12.683594 2.398438-1.46875 3.773438-4.15625 3.5625-6.960937zm-103.476562-156.933594h50c6.890625 0 12.5 5.605469 12.5 12.5v62.5h-75v-62.5c0-6.894531 5.605469-12.5 12.5-12.5zm25 165c-33.1875 0-54.671875-8.023438-63.078125-11.878906 3.652344-35.011719 16.777344-56.199219 21.753906-63.121094h82.671875c4.988282 6.871094 18.066406 27.859375 21.730469 63.121094-8.425781 3.863281-29.90625 11.878906-63.078125 11.878906zm0 0"/><path d="m360 97.5c0 28.949219 23.550781 52.5 52.5 52.5s52.5-23.550781 52.5-52.5c0-17.460938-8.578125-32.945312-21.730469-42.496094 6.082031-4.566406 10.023438-11.832031 10.023438-20.003906 0-12.257812-8.871094-22.484375-20.527344-24.597656-4.648437-6.429688-12.203125-10.402344-20.265625-10.402344-8.066406 0-15.617188 3.972656-20.269531 10.402344-11.65625 2.113281-20.523438 12.339844-20.523438 24.597656 0 8.171875 3.941407 15.4375 10.019531 20.003906-13.152343 9.550782-21.726562 25.035156-21.726562 42.496094zm90 0c0 20.675781-16.824219 37.5-37.5 37.5-20.679688 0-37.5-16.824219-37.5-37.5 0-20.679688 16.820312-37.5 37.5-37.5 20.675781 0 37.5 16.820312 37.5 37.5zm-53.292969-52.5c-5.515625 0-10-4.484375-10-10s4.484375-10 10-10c2.894531 0 5.527344-1.664062 6.769531-4.277344 1.679688-3.53125 5.136719-5.722656 9.023438-5.722656 3.882812 0 7.339844 2.191406 9.019531 5.722656 1.242188 2.613282 3.878907 4.277344 6.773438 4.277344 5.511719 0 10 4.484375 10 10s-4.488281 10-10 10zm0 0"/></svg>